<?xml version="1.0" encoding="UTF-8"?>
<!DOCTYPE svg PUBLIC "-//W3C//DTD SVG 1.1//EN" "http://www.w3.org/Graphics/SVG/1.1/DTD/svg11.dtd">
<!-- Creator: CorelDRAW -->
<svg xmlns="http://www.w3.org/2000/svg" xml:space="preserve" style="shape-rendering:geometricPrecision; text-rendering:geometricPrecision; image-rendering:optimizeQuality; fill-rule:evenodd; clip-rule:evenodd"
viewBox="0 0 601.814 695.344"
 xmlns:xlink="http://www.w3.org/1999/xlink">
 <defs>
  <style type="text/css">
   <![CDATA[
    .str0 {stroke:#2B2A29;stroke-width:0.0448239}
    .str10 {stroke:#2B2A29;stroke-width:0.10353}
    .str9 {stroke:#2B2A29;stroke-width:0.103766}
    .str4 {stroke:#2B2A29;stroke-width:0.207531}
    .str1 {stroke:#2B2A29;stroke-width:0.415062}
    .str2 {stroke:#FEFEFE;stroke-width:0.415062}
    .str5 {stroke:#2B2A29;stroke-width:0.415297}
    .str8 {stroke:#2B2A29;stroke-width:0.44118}
    .str3 {stroke:#2B2A29;stroke-width:0.830065}
    .str7 {stroke:#2B2A29;stroke-width:0.88236}
    .str6 {stroke:#2B2A29;stroke-width:1.66013}
    .fil4 {fill:none}
    .fil12 {fill:#009846}
    .fil26 {fill:#00A0E3}
    .fil6 {fill:#1C1B17}
    .fil0 {fill:#2B2A29}
    .fil10 {fill:#434242}
    .fil9 {fill:#727271}
    .fil13 {fill:#9D9E9E}
    .fil8 {fill:#A2D9F7}
    .fil22 {fill:#AF9778}
    .fil7 {fill:#B2B3B3}
    .fil3 {fill:#C5C6C6}
    .fil2 {fill:#D9DADA}
    .fil23 {fill:#E31E24}
    .fil1 {fill:#EBECEC}
    .fil24 {fill:#EF7F1A}
    .fil5 {fill:#FEFEFE}
    .fil11 {fill:#5B5B5B}
    .fil17 {fill:#9D9E9E}
    .fil14 {fill:#AF9778}
    .fil21 {fill:#C5C6C6}
    .fil15 {fill:#D6E9D8}
    .fil25 {fill:#D9DADA}
    .fil20 {fill:#DBE285}
    .fil19 {fill:#F5B2B6}
    .fil18 {fill:#FFF383}
    .fil16 {fill:#FFF7B2}
   ]]>
  </style>
 </defs>
 <g id="Casa">
  <metadata id="CorelCorpID_0Corel-Layer"/>
  <path id="PerfilCasa" class="fil0 str0" d="M35.905 0.0224119l206.472 0 0 29.412 18.8237 0 0 -29.412 227.649 0 0 19.4119 -23.5296 0 0 18.8237 23.5296 0 0 127.648 -23.5296 0 0 18.8237 18.8237 0 0 -8.8236 117.648 0 0 200.002 -10.5883 0 0 30.5885 5.8824 0 0 81.1771 -5.8824 0 0 94.1184 -0.466062 0 -0.122177 113.53 -114.119 0 0 -44.7062 -134.707 0 0 -31.7649 -166.472 0 0 -39.4121c-47.2553,-6.47064 -94.5105,-12.9413 -141.766,-19.4119 -19.6237,-8.8423 -32.3925,-22.9571 -32.9414,-46.4709l-0.58824 -461.18 35.8826 0 0 -52.3533z"/>
  <path id="SueloTerraza" class="fil1 str0" d="M40.9757 4.28127l197.06 0 0 517.651 234.119 57.9616 0 35.5686 21.1766 0 0 -33.5297 92.9419 0 0 108.236 -104.707 0 0 -44.7062 -134.707 0 -0.064824 -31.7649 -166.407 0 0 -39.4121c-48.4318,-6.47064 -96.8635,-12.9413 -145.295,-19.4119 -15.522,-7.306 -27.1973,-18.7987 -29.412,-40.5885l0 -457.651 35.2944 0 0 -52.3533z"/>
  <polygon id="SueloCasa" class="fil2 str0" points="265.683,4.5048 483.92,4.5048 483.92,14.5049 460.391,14.5049 460.391,42.7404 483.92,42.7404 483.92,160.977 460.391,160.977 460.391,184.506 434.508,184.506 434.508,189.212 488.626,189.212 488.626,179.8 596.862,179.8 596.862,370.978 586.274,370.978 586.274,410.979 592.156,410.979 592.156,482.744 586.274,482.744 586.274,576.862 471.567,576.862 242.154,516.862 242.154,356.272 377.07,356.272 376.923,239.212 372.155,239.212 372.155,239.801 345.096,239.801 345.096,298.625 349.802,298.625 349.802,351.566 242.252,351.566 242.154,329.801 266.86,329.801 266.86,292.742 242.154,292.742 242.154,189.212 372.155,189.212 372.155,190.977 376.863,190.977 376.861,189.212 383.331,189.212 383.331,184.506 376.861,184.506 372.155,184.506 242.154,184.506 242.154,33.9168 265.683,33.9168 "/>
  <g id="MuebleTele">
   <rect id="_265725120" class="fil0 str1" transform="matrix(0.919719 -0.392577 0.392577 0.919719 452.946 377.937)" width="47.0592" height="29.4119"/>
   <path id="_265725480" class="fil2 str2" d="M456.873 384.576l41.4324 -17.6851c0.210884,-0.0900007 0.532592,0.185825 0.714947,0.613005l0.722535 1.69272c0.182354,0.427239 0.159001,0.850359 -0.0518828,0.94036l-41.4324 17.6852c-0.210884,0.0900007 -0.532592,-0.185884 -0.714947,-0.613064l-0.722535 -1.69272c-0.182354,-0.42718 -0.159001,-0.850301 0.0518828,-0.94036z"/>
  </g>
  <rect id="Pilar" class="fil0 str3" x="382.743" y="432.743" width="11.7648" height="11.7648"/>
  <rect id="PuertaHabitacion" class="fil0 str0" x="429.24" y="190.977" width="54.7063" height="1.76472"/>
  <rect id="PuertaAseo" class="fil0 str0" x="379.214" y="232.742" width="1.76466" height="50.5886"/>
  <rect id="ArmarioEscobas" class="fil3 str3" x="495.097" y="584.509" width="51.1769" height="16.4707"/>
  <g id="PuertaCasa">
   <rect id="_265724400" class="fil0 str0" x="545.685" y="300.389" width="50.5886" height="1.17648"/>
   <path id="_265724376" class="fil4 str4" d="M545.369 301.57c0.140178,26.5829 22.87,48.0807 50.9052,48.1461"/>
   <rect id="_265723968" class="fil5 str4" x="597.025" y="300.089" width="4.54356" height="48.8239"/>
  </g>
  <g id="VentanaAseo">
   <rect id="_265723584" class="fil5 str0" x="237.448" y="234.507" width="4.70592" height="32.9414"/>
   <rect id="_265723776" class="fil4 str0" x="239.801" y="234.507" width="2.3529" height="32.9414"/>
  </g>
  <g id="VentanalComedor">
   <rect id="_265723800" class="fil5 str3" transform="matrix(0.967585 0.252546 -0.252546 0.967585 241.904 514.991)" width="235.336" height="5.8824"/>
   <rect id="_265723680" class="fil6 str1" transform="matrix(0.967585 0.252546 -0.252546 0.967585 241.943 515.001)" width="117.648" height="2.9412"/>
   <rect id="_265722864" class="fil0 str1" transform="matrix(0.967585 0.252546 -0.252546 0.967585 355.035 547.559)" width="117.648" height="2.9412"/>
   <polygon id="_265722912" class="fil6 str5" points="243.689,512.415 246.459,513.168 247.382,513.42 262.154,517.438 261.913,518.4 247.141,514.382 246.9,515.344 243.207,514.339 "/>
   <polygon id="_265722816" class="fil0 str1" points="467.949,574.313 465.175,573.548 464.25,573.293 449.455,569.215 449.214,570.192 464.009,574.27 463.768,575.246 467.466,576.266 "/>
  </g>
  <g id="MesaySillasTerraza">
   <g id="SillaTerraza6">
    <rect id="_265722792" class="fil2 str0" x="94.8161" y="201.734" width="27.059" height="28.8238"/>
    <rect id="_265723344" class="fil2 str0" x="85.4042" y="201.734" width="9.41184" height="28.8238"/>
    <rect id="_265722648" class="fil0 str0" x="91.2866" y="198.793" width="27.059" height="2.94114"/>
    <rect id="_265723320" class="fil0 str0" x="91.2866" y="230.686" width="27.059" height="2.94114"/>
   </g>
   <g id="SillaTerraza5">
    <rect id="_265722096" class="fil2 str0" x="94.8161" y="238.23" width="27.059" height="28.8238"/>
    <rect id="_265721976" class="fil2 str0" x="85.4042" y="238.23" width="9.41184" height="28.8238"/>
    <rect id="_265722216" class="fil0 str0" x="91.2866" y="235.288" width="27.059" height="2.94114"/>
    <rect id="_265722000" class="fil0 str0" x="91.2866" y="267.182" width="27.059" height="2.94114"/>
   </g>
   <g id="SillaTerraza4">
    <rect id="_265722240" class="fil2 str0" transform="matrix(2.64845E-014 -1 1 2.64845E-014 114.597 303.331)" width="27.059" height="28.8238"/>
    <rect id="_265721232" class="fil2 str0" transform="matrix(2.64845E-014 -1 1 2.64845E-014 114.597 312.742)" width="9.41184" height="28.8238"/>
    <rect id="_265721472" class="fil0 str0" transform="matrix(2.64845E-014 -1 1 2.64845E-014 111.656 306.86)" width="27.059" height="2.94114"/>
    <rect id="_265721184" class="fil0 str0" transform="matrix(2.64845E-014 -1 1 2.64845E-014 143.549 306.86)" width="27.059" height="2.94114"/>
   </g>
   <g id="SillaTerraza3">
    <rect id="_265721760" class="fil2 str0" x="136.271" y="238.358" width="27.059" height="28.8238"/>
    <rect id="_265721520" class="fil2 str0" x="163.33" y="238.358" width="9.41184" height="28.8238"/>
    <rect id="_265721736" class="fil0 str0" x="139.8" y="267.182" width="27.059" height="2.94114"/>
    <rect id="_265721112" class="fil0 str0" x="139.8" y="235.289" width="27.059" height="2.94114"/>
   </g>
   <g id="SillaTerraza2">
    <rect id="_265720800" class="fil2 str0" x="136.271" y="201.862" width="27.059" height="28.8238"/>
    <rect id="_265720392" class="fil2 str0" x="163.33" y="201.862" width="9.41184" height="28.8238"/>
    <rect id="_265720872" class="fil0 str0" x="139.8" y="230.686" width="27.059" height="2.94114"/>
    <rect id="_265721016" class="fil0 str0" x="139.8" y="198.793" width="27.059" height="2.94114"/>
   </g>
   <g id="SillaTerraza1">
    <rect id="_265720344" class="fil2 str0" transform="matrix(2.64845E-014 1 -1 2.64845E-014 143.549 170.71)" width="27.059" height="28.8238"/>
    <rect id="_265721064" class="fil2 str0" transform="matrix(2.64845E-014 1 -1 2.64845E-014 143.549 161.298)" width="9.41184" height="28.8238"/>
    <rect id="_265719864" class="fil0 str0" transform="matrix(2.64845E-014 1 -1 2.64845E-014 146.49 167.181)" width="27.059" height="2.94114"/>
    <rect id="_265719672" class="fil0 str0" transform="matrix(2.64845E-014 1 -1 2.64845E-014 114.597 167.181)" width="27.059" height="2.94114"/>
   </g>
   <g id="MesaTerraza">
    <rect id="_265719576" class="fil0 str3" x="102.741" y="180.98" width="52.9416" height="105.883"/>
    <rect id="_265720032" class="fil5 str0" x="105.094" y="183.333" width="48.2356" height="101.177"/>
   </g>
  </g>
  <g id="VentanalHabitacion">
   <rect id="_265720248" class="fil5 str1" x="235.378" y="35.6592" width="5.8824" height="147.06"/>
   <rect id="_265718832" class="fil0 str1" x="239.414" y="35.6728" width="1.76472" height="49.4121"/>
   <rect id="_265718976" class="fil0 str1" x="237.42" y="84.4967" width="1.76472" height="49.4121"/>
   <rect id="_265719288" class="fil0 str1" x="235.655" y="133.321" width="1.76472" height="49.4121"/>
  </g>
  <g id="Armario">
   <polygon id="SueloArmario" class="fil7 str6" points="448.626,2.15184 448.626,186.859 462.744,186.859 462.744,163.33 486.273,163.33 486.273,40.3874 462.744,40.3874 462.744,16.8578 486.273,16.8578 486.273,2.15184 "/>
   <g id="PuertaArmario">
    <rect id="_265719144" class="fil1 str3" x="447.449" y="93.329" width="2.35296" height="91.1771"/>
    <rect id="_265718232" class="fil1 str3" x="449.802" y="4.5048" width="2.3529" height="91.1771"/>
   </g>
  </g>
  <g id="Comedor">
   <g id="Sofa">
    <path id="_265718472" class="fil5 str3" d="M483.798 503.836l15.8825 0 25.2943 0 0 -117.648 58.824 0 0 117.648 0 55.8828 -58.824 0 -25.2943 0 -15.8825 0c-1.61766,0 -2.9412,-1.32354 -2.9412,-2.9412l0 -50.0004c0,-1.61766 1.32354,-2.9412 2.9412,-2.9412z"/>
    <rect id="_265718328" class="fil5 str0" x="566.152" y="386.188" width="17.6472" height="173.531"/>
    <path id="_265718568" class="fil5 str6" d="M526.709 386.188l37.7092 0c0.953596,0 1.73378,0.794124 1.73378,1.76472l0 14.1178c0,0.970596 -0.780182,1.76472 -1.73378,1.76472l-37.7092 0c-0.953596,0 -1.73378,-0.794124 -1.73378,-1.76472l0 -14.1178c0,-0.970596 0.780182,-1.76472 1.73378,-1.76472z"/>
    <path id="_265717944" class="fil5 str6" d="M484.448 542.072l78.112 0c1.97525,0 3.59138,0.794124 3.59138,1.76472l0 14.1178c0,0.970596 -1.61613,1.76472 -3.59138,1.76472l-78.112 0c-1.97525,0 -3.59138,-0.794124 -3.59138,-1.76472l0 -14.1178c0,-0.970596 1.61613,-1.76472 3.59138,-1.76472z"/>
    <path id="_265717968" class="fil5 str6" d="M527.499 404.423l36.1293 0c1.06454,0 1.93549,0.794124 1.93549,1.76472l0 46.4709c0,0.970596 -0.870948,1.76472 -1.93549,1.76472l-36.1293 0c-1.06454,0 -1.93549,-0.794124 -1.93549,-1.76472l0 -46.4709c0,-0.970596 0.870948,-1.76472 1.93549,-1.76472z"/>
    <path id="_265717392" class="fil5 str6" d="M527.545 455.012l36.036 0c1.09018,0 1.98213,0.794124 1.98213,1.76472l0 45.2945c0,0.970596 -0.891948,1.76472 -1.98213,1.76472l-36.036 0c-1.09018,0 -1.98213,-0.794124 -1.98213,-1.76472l0 -45.2945c0,-0.970596 0.891948,-1.76472 1.98213,-1.76472z"/>
    <path id="_265717704" class="fil5 str6" d="M568.026 386.188l13.8983 0c1.03095,0 1.87443,0.794065 1.87443,1.76472l0 64.7064c0,0.970655 -0.843477,1.76472 -1.87443,1.76472l-13.8983 0c-1.03095,0 -1.87443,-0.794065 -1.87443,-1.76472l0 -64.7064c0,-0.970655 0.843477,-1.76472 1.87443,-1.76472z"/>
    <path id="_265717992" class="fil5 str6" d="M567.999 455.012l13.9521 0c1.01618,0 1.84754,0.794065 1.84754,1.76472l0 45.2945c0,0.970655 -0.831359,1.76472 -1.84754,1.76472l-13.9521 0c-1.01618,0 -1.84754,-0.794065 -1.84754,-1.76472l0 -45.2945c0,-0.970655 0.831359,-1.76472 1.84754,-1.76472z"/>
    <path id="_265716792" class="fil5 str6" d="M567.859 504.424l14.2316 0c0.939242,0 1.70778,0.794124 1.70778,1.76472l0 51.7651c0,0.970596 -0.768535,1.76472 -1.70778,1.76472l-14.2316 0c-0.939242,0 -1.70778,-0.794124 -1.70778,-1.76472l0 -51.7651c0,-0.970596 0.768535,-1.76472 1.70778,-1.76472z"/>
    <path id="_265716504" class="fil5 str6" d="M483.21 503.836l80.5889 0c1.29413,0 2.35296,1.04254 2.35296,2.31678l0 33.0138c0,1.27425 -1.05883,2.31678 -2.35296,2.31678l-80.5889 0c-1.29413,0 -2.35296,-1.04254 -2.35296,-2.31678l0 -33.0138c0,-1.27425 1.05883,-2.31678 2.35296,-2.31678z"/>
   </g>
   <g id="MesaComedor">
    <g id="Sillas">
     <g id="Silla4">
      <rect id="_265716528" class="fil5 str3" x="478.626" y="218.901" width="29.412" height="29.4119" rx="1.26542" ry="1.26542"/>
      <path id="_265716552" class="fil5 str3" d="M479.803 218.901l27.059 0c0.647064,0 1.17648,0.7563 1.17648,1.68066l0 2.52108c0,0.92436 -0.529416,1.68066 -1.17648,1.68066l-27.059 0c-0.647064,0 -1.17648,-0.7563 -1.17648,-1.68066l0 -2.52108c0,-0.92436 0.529416,-1.68066 1.17648,-1.68066z"/>
     </g>
     <g id="Silla3">
      <rect id="_265715904" class="fil5 str3" x="517.571" y="218.901" width="29.412" height="29.4119" rx="1.26542" ry="1.26542"/>
      <path id="_265715928" class="fil5 str3" d="M518.748 218.901l27.059 0c0.647064,0 1.17648,0.7563 1.17648,1.68066l0 2.52108c0,0.92436 -0.529416,1.68066 -1.17648,1.68066l-27.059 0c-0.647064,0 -1.17648,-0.7563 -1.17648,-1.68066l0 -2.52108c0,-0.92436 0.529416,-1.68066 1.17648,-1.68066z"/>
     </g>
     <g id="Silla2">
      <rect id="_265715976" class="fil5 str3" x="517.571" y="266.272" width="29.412" height="29.4119" rx="1.26542" ry="1.26542"/>
      <path id="_265716096" class="fil5 str3" d="M545.807 295.684l-27.059 0c-0.647064,0 -1.17648,-0.7563 -1.17648,-1.68066l0 -2.52108c0,-0.92436 0.529416,-1.68066 1.17648,-1.68066l27.059 0c0.647064,0 1.17648,0.7563 1.17648,1.68066l0 2.52108c0,0.92436 -0.529416,1.68066 -1.17648,1.68066z"/>
     </g>
     <g id="Silla1">
      <rect id="_265714992" class="fil5 str3" x="478.626" y="266.272" width="29.412" height="29.4119" rx="1.26542" ry="1.26542"/>
      <path id="_265715688" class="fil5 str3" d="M506.862 295.684l-27.059 0c-0.647064,0 -1.17648,-0.7563 -1.17648,-1.68066l0 -2.52108c0,-0.92436 0.529416,-1.68066 1.17648,-1.68066l27.059 0c0.647064,0 1.17648,0.7563 1.17648,1.68066l0 2.52108c0,0.92436 -0.529416,1.68066 -1.17648,1.68066z"/>
     </g>
    </g>
    <rect id="_265715064" class="fil4 str3" x="453.981" y="227.88" width="117.648" height="58.824"/>
    <rect id="_265714656" class="fil1 str3" x="551.044" y="228.177" width="5.8824" height="58.5275"/>
    <rect id="_265714416" class="fil1 str3" x="468.69" y="227.88" width="5.88234" height="58.824"/>
   </g>
   <g id="AAComedor">
    <path id="_265714296" class="fil8 str6" d="M505.218 564.053l51.0004 0c1.10013,0 2.00002,0.506592 2.00002,1.12583l0 9.51313c0,0.61924 -0.899889,1.12583 -2.00002,1.12583l-51.0004 0c-1.10013,0 -2.00002,-0.506592 -2.00002,-1.12583l0 -9.51313c0,-0.61924 0.899889,-1.12583 2.00002,-1.12583z"/>
    <path id="_265714704" class="fil8 str3" d="M504.81 564.053l51.817 0c0.875536,0 1.59172,0.421297 1.59172,0.936301l0 1.0686c0,0.515004 -0.716182,0.936301 -1.59172,0.936301l-51.817 0c-0.875536,0 -1.59172,-0.421297 -1.59172,-0.936301l0 -1.0686c0,-0.515004 0.716182,-0.936301 1.59172,-0.936301z"/>
   </g>
   <g id="Baul">
    <rect id="_265713480" class="fil4 str3" x="466.273" y="427.449" width="41.1768" height="58.8239"/>
    <rect id="_265713648" class="fil1 str3" x="466.273" y="432.743" width="41.1767" height="5.8824"/>
    <rect id="_265713720" class="fil1 str3" x="466.273" y="474.508" width="41.1768" height="5.8824"/>
   </g>
  </g>
  <g id="Barbacoa">
   <rect id="_265713936" class="fil9 str6" x="200.977" y="319.213" width="36.4709" height="104.707"/>
   <rect id="_265714152" class="fil10 str6" x="209.212" y="383.919" width="27.6473" height="20.5884"/>
  </g>
  <g id="MesaTumbonas">
   <rect id="_265713192" class="fil11 str0" transform="matrix(0.643336 -0.765584 0.765584 0.643336 105.838 460.593)" width="25.8826" height="25.8826"/>
   <path id="_265713024" class="fil3 str4" d="M103.351 460.809l18.9219 -22.5173 22.5173 18.9218 -18.9218 22.5173 -22.5173 -18.9218zm2.48637 -0.215766l16.6512 -19.8153 19.8153 16.6512 -16.6512 19.8153 -19.8153 -16.6512z"/>
  </g>
  <g id="Tumbona2">
   <rect id="_265713312" class="fil2 str0" transform="matrix(0.4602 -0.887815 0.887815 0.4602 135.072 508.564)" width="67.7853" height="0.58824"/>
   <rect id="_265713120" class="fil2 str0" transform="matrix(0.4602 -0.887815 0.887815 0.4602 168.123 525.697)" width="67.6476" height="0.58824"/>
   <rect id="_265712880" class="fil3 str0" transform="matrix(0.4602 -0.887815 0.887815 0.4602 146.83 480.868)" width="31.1767" height="2.9412"/>
   <rect id="_265712832" class="fil3 str0" transform="matrix(0.4602 -0.887815 0.887815 0.4602 182.145 498.486)" width="31.1767" height="2.9412"/>
   <rect id="_263061480" class="fil3 str0" transform="matrix(0.4602 -0.887815 0.887815 0.4602 135.635 508.856)" width="1.76472" height="36.4709"/>
   <rect id="_263056104" class="fil3 str0" transform="matrix(0.4602 -0.887815 0.887815 0.4602 165.955 450.365)" width="1.76472" height="36.4709"/>
   <rect id="_263047776" class="fil5 str0" transform="matrix(0.4602 -0.887815 0.887815 0.4602 135.616 510.172)" width="70.0005" height="35.2944"/>
   <rect id="_263030352" class="fil3 str0" transform="matrix(0.4602 -0.887815 0.887815 0.4602 170.11 446.183)" width="1.50736" height="32.9414"/>
   <rect id="_263029992" class="fil3 str0" transform="matrix(0.4602 -0.887815 0.887815 0.4602 171.497 443.506)" width="1.50736" height="32.9414"/>
   <rect id="_263029920" class="fil3 str0" transform="matrix(0.4602 -0.887815 0.887815 0.4602 172.885 440.83)" width="1.50736" height="32.9414"/>
   <rect id="_263030232" class="fil3 str0" transform="matrix(0.4602 -0.887815 0.887815 0.4602 174.272 438.153)" width="1.50736" height="32.9414"/>
   <rect id="_263030088" class="fil3 str0" transform="matrix(0.4602 -0.887815 0.887815 0.4602 175.659 435.477)" width="1.50736" height="32.9414"/>
   <rect id="_263029728" class="fil3 str0" transform="matrix(0.4602 -0.887815 0.887815 0.4602 177.047 432.8)" width="1.50736" height="32.9414"/>
   <rect id="_263030064" class="fil3 str0" transform="matrix(0.4602 -0.887815 0.887815 0.4602 178.434 430.124)" width="1.50736" height="32.9414"/>
   <rect id="_263030472" class="fil3 str0" transform="matrix(0.4602 -0.887815 0.887815 0.4602 179.822 427.447)" width="1.50736" height="32.9414"/>
   <rect id="_263029464" class="fil3 str0" transform="matrix(0.4602 -0.887815 0.887815 0.4602 167.83 448.024)" width="25.2943" height="1.17648"/>
   <rect id="_263029536" class="fil3 str0" transform="matrix(0.4602 -0.887815 0.887815 0.4602 198.107 463.718)" width="25.2943" height="1.17648"/>
  </g>
  <g id="Tumbona1">
   <rect id="_263029200" class="fil2 str0" transform="matrix(0.779246 -0.626718 0.626718 0.779246 44.0171 423.368)" width="67.7853" height="0.58824"/>
   <rect id="_263029152" class="fil2 str0" transform="matrix(0.779246 -0.626718 0.626718 0.779246 67.3483 452.378)" width="67.6476" height="0.58824"/>
   <rect id="_263029584" class="fil3 str0" transform="matrix(0.779246 -0.626718 0.626718 0.779246 65.949 402.769)" width="31.1767" height="2.9412"/>
   <rect id="_263029416" class="fil3 str0" transform="matrix(0.779246 -0.626718 0.626718 0.779246 91.1555 433.136)" width="31.1767" height="2.9412"/>
   <rect id="_263029512" class="fil3 str0" transform="matrix(0.779246 -0.626718 0.626718 0.779246 44.4148 423.863)" width="1.76472" height="36.4709"/>
   <rect id="_263061336" class="fil3 str0" transform="matrix(0.779246 -0.626718 0.626718 0.779246 95.7537 382.573)" width="1.76472" height="36.4709"/>
   <rect id="_263061456" class="fil5 str0" transform="matrix(0.779246 -0.626718 0.626718 0.779246 43.8667 425.058)" width="70.0005" height="35.2944"/>
   <rect id="_263061408" class="fil3 str0" transform="matrix(0.779246 -0.626718 0.626718 0.779246 101.243 380.422)" width="1.50736" height="32.9414"/>
   <rect id="_263060448" class="fil3 str0" transform="matrix(0.779246 -0.626718 0.626718 0.779246 103.592 378.533)" width="1.50736" height="32.9414"/>
   <rect id="_263061144" class="fil3 str0" transform="matrix(0.779246 -0.626718 0.626718 0.779246 105.941 376.644)" width="1.50736" height="32.9414"/>
   <rect id="_263061120" class="fil3 str0" transform="matrix(0.779246 -0.626718 0.626718 0.779246 108.291 374.754)" width="1.50736" height="32.9414"/>
   <rect id="_263061072" class="fil3 str0" transform="matrix(0.779246 -0.626718 0.626718 0.779246 110.64 372.865)" width="1.50736" height="32.9414"/>
   <rect id="_263061024" class="fil3 str0" transform="matrix(0.779246 -0.626718 0.626718 0.779246 112.989 370.975)" width="1.50736" height="32.9414"/>
   <rect id="_263060976" class="fil3 str0" transform="matrix(0.779246 -0.626718 0.626718 0.779246 115.338 369.086)" width="1.50736" height="32.9414"/>
   <rect id="_263061048" class="fil3 str0" transform="matrix(0.779246 -0.626718 0.626718 0.779246 117.687 367.197)" width="1.50736" height="32.9414"/>
   <rect id="_263060952" class="fil3 str0" transform="matrix(0.779246 -0.626718 0.626718 0.779246 98.4143 381.188)" width="25.2943" height="1.17648"/>
   <rect id="_263059728" class="fil3 str0" transform="matrix(0.779246 -0.626718 0.626718 0.779246 119.787 407.762)" width="25.2943" height="1.17648"/>
  </g>
  <g id="Plantas">
   <g id="Macetero1">
    <rect id="_263060088" class="fil1 str5" transform="matrix(0.990116 0.14025 -0.14025 0.990116 114.028 527.02)" width="35.2944" height="35.2944"/>
    <rect id="_263060208" class="fil0 str5" transform="matrix(0.990116 0.14025 -0.14025 0.990116 116.028 529.679)" width="30.5885" height="30.5885"/>
   </g>
   <g id="Macetero2">
    <rect id="_263060016" class="fil1 str3" x="9.74366" y="439.366" width="35.2944" height="35.2944"/>
    <rect id="_263059752" class="fil0 str3" x="12.0966" y="441.719" width="30.5885" height="30.5885"/>
   </g>
   <g id="Macetero3">
    <rect id="_263058960" class="fil1 str3" x="9.74366" y="313.384" width="35.2944" height="35.2944"/>
    <rect id="_263059440" class="fil0 str3" x="12.0966" y="315.737" width="30.5885" height="30.5885"/>
   </g>
   <g id="Macetero4">
    <rect id="_263059632" class="fil1 str3" x="9.74366" y="187.402" width="35.2944" height="35.2944"/>
    <rect id="_263059080" class="fil0 str3" x="12.0966" y="189.755" width="30.5885" height="30.5885"/>
   </g>
   <g id="Macetero5">
    <rect id="_263058840" class="fil1 str3" x="9.74366" y="61.4205" width="35.2944" height="35.2944"/>
    <rect id="_263058672" class="fil0 str3" x="12.0966" y="63.7735" width="30.5885" height="30.5885"/>
   </g>
   <g id="Planta1">
    <g>
     <path id="_263058888" class="fil12 str4" d="M144.594 521.024c-1.04213,13.1125 -7.10364,21.2513 -14.3833,28.183 1.16277,-11.0908 5.20586,-20.8361 14.3833,-28.183z"/>
     <line id="_263058192" class="fil4 str4" x1="140.605" y1="527.606" x2="130.211" y2= "549.207" />
    </g>
    <g>
     <path id="_263058504" class="fil12 str4" d="M117.971 519.686c9.31954,9.28272 11.5989,19.1715 12.1697,29.2073 -7.70059,-8.06594 -12.511,-17.4563 -12.1697,-29.2073z"/>
     <line id="_263058864" class="fil4 str4" x1="120.405" y1="526.988" x2="130.141" y2= "548.894" />
    </g>
    <g>
     <path id="_263057376" class="fil12 str4" d="M110.67 556.04c6.55405,-5.78934 13.2116,-6.88211 19.8941,-6.83505 -5.6781,4.76686 -12.1122,7.56 -19.8941,6.83505z"/>
     <line id="_263058000" class="fil4 str4" x1="115.617" y1="554.735" x2="130.564" y2= "549.205" />
    </g>
    <g>
     <path id="_263057736" class="fil12 str4" d="M152.858 558.738c-9.45813,4.00215 -16.3938,-1.80731 -22.7174,-9.9979 8.05524,-2.95426 15.7275,-0.922242 22.7174,9.9979z"/>
     <line id="_263057688" class="fil4 str4" x1="147.428" y1="555.437" x2="130.14" y2= "548.74" />
    </g>
    <g>
     <path id="_263057928" class="fil12 str4" d="M141.945 568.771c-9.38901,-6.32593 -11.7426,-13.1044 -12.3887,-19.9926 7.76094,5.49881 12.6418,11.9219 12.3887,19.9926z"/>
     <line id="_263057832" class="fil4 str4" x1="139.456" y1="563.769" x2="129.556" y2= "548.778" />
    </g>
   </g>
   <g id="Planta2">
    <g>
     <path id="_263056776" class="fil12 str4" d="M41.6183 431.569c-1.04213,13.1125 -7.10364,21.2513 -14.3833,28.183 1.16277,-11.0908 5.20586,-20.8361 14.3833,-28.183z"/>
     <line id="_263057352" class="fil4 str4" x1="37.6285" y1="438.151" x2="27.2349" y2= "459.752" />
    </g>
    <g>
     <path id="_263057040" class="fil12 str4" d="M14.9952 430.231c9.31954,9.28272 11.5989,19.1715 12.1697,29.2073 -7.70059,-8.06594 -12.511,-17.4563 -12.1697,-29.2073z"/>
     <line id="_263057328" class="fil4 str4" x1="17.4292" y1="437.533" x2="27.1649" y2= "459.438" />
    </g>
    <g>
     <path id="_263057016" class="fil12 str4" d="M7.69341 466.585c6.55405,-5.78934 13.2116,-6.88211 19.8941,-6.83505 -5.6781,4.76686 -12.1122,7.56 -19.8941,6.83505z"/>
     <line id="_263056896" class="fil4 str4" x1="12.6411" y1="465.28" x2="27.5875" y2= "459.75" />
    </g>
    <g>
     <path id="_263055936" class="fil12 str4" d="M49.8816 469.282c-9.45813,4.00215 -16.3938,-1.80731 -22.7174,-9.9979 8.05524,-2.95426 15.7275,-0.922242 22.7174,9.9979z"/>
     <line id="_263056152" class="fil4 str4" x1="44.452" y1="465.981" x2="27.1642" y2= "459.284" />
    </g>
    <g>
     <path id="_263055888" class="fil12 str4" d="M38.9683 479.315c-9.38901,-6.32593 -11.7426,-13.1044 -12.3887,-19.9926 7.76094,5.49881 12.6418,11.9219 12.3887,19.9926z"/>
     <line id="_263056320" class="fil4 str4" x1="36.4796" y1="474.314" x2="26.5796" y2= "459.323" />
    </g>
   </g>
   <g id="Planta3">
    <g>
     <path id="_263056584" class="fil12 str4" d="M42.0799 305.796c-1.04213,13.1125 -7.10364,21.2513 -14.3833,28.183 1.16277,-11.0908 5.20586,-20.8361 14.3833,-28.183z"/>
     <line id="_263055696" class="fil4 str4" x1="38.0902" y1="312.378" x2="27.6966" y2= "333.98" />
    </g>
    <g>
     <path id="_263055336" class="fil12 str4" d="M15.4569 304.458c9.31954,9.28272 11.5989,19.1715 12.1697,29.2073 -7.70059,-8.06594 -12.511,-17.4563 -12.1697,-29.2073z"/>
     <line id="_263055312" class="fil4 str4" x1="17.8908" y1="311.76" x2="27.6266" y2= "333.666" />
    </g>
    <g>
     <path id="_263055168" class="fil12 str4" d="M8.15506 340.812c6.55405,-5.78934 13.2116,-6.88211 19.8941,-6.83505 -5.6781,4.76686 -12.1122,7.56 -19.8941,6.83505z"/>
     <line id="_263055768" class="fil4 str4" x1="13.1027" y1="339.507" x2="28.0492" y2= "333.977" />
    </g>
    <g>
     <path id="_263055744" class="fil12 str4" d="M50.3432 343.51c-9.45813,4.00215 -16.3938,-1.80731 -22.7174,-9.9979 8.05524,-2.95426 15.7275,-0.922242 22.7174,9.9979z"/>
     <line id="_263054592" class="fil4 str4" x1="44.9136" y1="340.209" x2="27.6259" y2= "333.512" />
    </g>
    <g>
     <path id="_263054472" class="fil12 str4" d="M39.4299 353.543c-9.38901,-6.32593 -11.7426,-13.1044 -12.3887,-19.9926 7.76094,5.49881 12.6418,11.9219 12.3887,19.9926z"/>
     <line id="_263054544" class="fil4 str4" x1="36.9412" y1="348.541" x2="27.0412" y2= "333.55" />
    </g>
   </g>
   <g id="Planta4">
    <g>
     <path id="_263054568" class="fil12 str4" d="M40.3152 178.737c-1.04213,13.1125 -7.10364,21.2513 -14.3833,28.183 1.16277,-11.0908 5.20586,-20.8361 14.3833,-28.183z"/>
     <line id="_263054712" class="fil4 str4" x1="36.3255" y1="185.319" x2="25.9318" y2= "206.92" />
    </g>
    <g>
     <path id="_263054184" class="fil12 str4" d="M13.6922 177.399c9.31954,9.28272 11.5989,19.1715 12.1697,29.2073 -7.70059,-8.06594 -12.511,-17.4563 -12.1697,-29.2073z"/>
     <line id="_263054112" class="fil4 str4" x1="16.1261" y1="184.7" x2="25.8618" y2= "206.606" />
    </g>
    <g>
     <path id="_263053560" class="fil12 str4" d="M6.39034 213.753c6.55405,-5.78934 13.2116,-6.88211 19.8941,-6.83505 -5.6781,4.76686 -12.1122,7.56 -19.8941,6.83505z"/>
     <line id="_263054040" class="fil4 str4" x1="11.338" y1="212.447" x2="26.2844" y2= "206.917" />
    </g>
    <g>
     <path id="_263053608" class="fil12 str4" d="M48.5785 216.45c-9.45813,4.00215 -16.3938,-1.80731 -22.7174,-9.9979 8.05524,-2.95426 15.7275,-0.922242 22.7174,9.9979z"/>
     <line id="_263053944" class="fil4 str4" x1="43.1489" y1="213.149" x2="25.8611" y2= "206.452" />
    </g>
    <g>
     <path id="_263054016" class="fil12 str4" d="M37.6652 226.483c-9.38901,-6.32593 -11.7426,-13.1044 -12.3887,-19.9926 7.76094,5.49881 12.6418,11.9219 12.3887,19.9926z"/>
     <line id="_263053032" class="fil4 str4" x1="35.1765" y1="221.482" x2="25.2765" y2= "206.49" />
    </g>
   </g>
   <g id="Planta5">
    <g>
     <path id="_263053056" class="fil12 str4" d="M41.4917 55.7945c-1.04213,13.1125 -7.10364,21.2513 -14.3833,28.183 1.16277,-11.0908 5.20586,-20.8361 14.3833,-28.183z"/>
     <line id="_263053128" class="fil4 str4" x1="37.5019" y1="62.3765" x2="27.1083" y2= "83.9775" />
    </g>
    <g>
     <path id="_263052840" class="fil12 str4" d="M14.8686 54.4564c9.31954,9.28272 11.5989,19.1715 12.1697,29.2073 -7.70059,-8.06594 -12.511,-17.4563 -12.1697,-29.2073z"/>
     <line id="_263053176" class="fil4 str4" x1="17.3026" y1="61.7582" x2="27.0383" y2= "83.6636" />
    </g>
    <g>
     <path id="_263052048" class="fil12 str4" d="M7.56682 90.8103c6.55405,-5.78934 13.2116,-6.88211 19.8941,-6.83505 -5.6781,4.76686 -12.1122,7.56 -19.8941,6.83505z"/>
     <line id="_263052672" class="fil4 str4" x1="12.5145" y1="89.5053" x2="27.4609" y2= "83.9753" />
    </g>
    <g>
     <path id="_263052552" class="fil12 str4" d="M49.755 93.5077c-9.45813,4.00215 -16.3938,-1.80731 -22.7174,-9.9979 8.05524,-2.95426 15.7275,-0.922242 22.7174,9.9979z"/>
     <line id="_263052600" class="fil4 str4" x1="44.3254" y1="90.2068" x2="27.0376" y2= "83.5098" />
    </g>
    <g>
     <path id="_263052432" class="fil12 str4" d="M38.8417 103.541c-9.38901,-6.32593 -11.7426,-13.1044 -12.3887,-19.9926 7.76094,5.49881 12.6418,11.9219 12.3887,19.9926z"/>
     <line id="_263052192" class="fil4 str4" x1="36.353" y1="98.5395" x2="26.453" y2= "83.5481" />
    </g>
   </g>
  </g>
  <g id="Aseo">
   <g id="Ducha">
    <rect id="_263051592" class="fil0 str0" x="242.154" y="235.095" width="2.94114" height="2.35296"/>
    <rect id="_263051736" class="fil5 str1" x="242.154" y="189.212" width="47.0592" height="82.3536" rx="1.32648" ry="1.32648"/>
    <path id="_263051400" class="fil2 str3" d="M247.84 193.33l34.51 0c0.862771,0 1.56866,0.769712 1.56866,1.71042l0 33.6383c0,0.940713 -0.705888,1.71042 -1.56866,1.71042l-34.51 0c-0.862771,0 -1.56866,-0.769712 -1.56866,-1.71042l0 -33.6383c0,-0.940713 0.705888,-1.71042 1.56866,-1.71042z"/>
    <rect id="_263051352" class="fil0 str0" x="288.331" y="189.8" width="0.88236" height="47.6474"/>
    <rect id="_263051952" class="fil0 str0" x="242.154" y="270.389" width="47.0592" height="1.17648"/>
   </g>
   <g id="Bidet">
    <path id="_263050920" class="fil5 str3" d="M270.977 299.801l27.059 0c0.647064,0 1.17648,0.530828 1.17648,1.1796l0 21.2325c0,0.64877 -0.529416,1.1796 -1.17648,1.1796l-27.059 0c-0.647064,0 -1.17648,-0.530828 -1.17648,-1.1796l0 -21.2325c0,-0.64877 0.529416,-1.1796 1.17648,-1.1796z"/>
    <path id="_263051208" class="fil5 str4" d="M278.443 302.154l18.0104 0c0.223708,0 0.40665,0.235237 0.40665,0.522886l0 17.7779c0,0.28759 -0.182943,0.522828 -0.40665,0.522828l-18.0104 0c-0.223708,0 -0.40665,-0.235237 -0.40665,-0.522828l0 -17.7779c0,-0.287649 0.182943,-0.522886 0.40665,-0.522886z"/>
    <rect id="_263050752" class="fil2 str1" x="272.742" y="309.828" width="11.8298" height="2.94896"/>
    <rect id="_263051016" class="fil0 str0" x="272.742" y="309.828" width="2.81637" height="2.94896"/>
   </g>
   <g id="Vater">
    <rect id="_263050416" class="fil5 str3" x="317.956" y="316.272" width="29.412" height="23.5296" rx="1.17648" ry="1.17648"/>
    <path id="_263050296" class="fil5 str4" d="M320.822 318.625l19.136 0c0.237708,0 0.432121,0.235237 0.432121,0.522886l0 17.7779c0,0.287649 -0.194413,0.522886 -0.432121,0.522886l-19.136 0c-0.237649,0 -0.432062,-0.235237 -0.432062,-0.522886l0 -17.7779c0,-0.287649 0.194413,-0.522886 0.432062,-0.522886z"/>
   </g>
   <g id="Lavabo">
    <rect id="_263050224" class="fil0 str0" x="314.592" y="251.575" width="29.4119" height="47.0591"/>
    <rect id="_263050368" class="fil5 str1" x="320.474" y="263.928" width="20.0002" height="30.5885"/>
    <rect id="_263050344" class="fil5 str5" x="322.743" y="266.272" width="15.2942" height="25.8825"/>
    <rect id="_263049288" class="fil1 str1" x="330.978" y="276.272" width="4.70592" height="5.29416"/>
    <rect id="_263049072" class="fil1 str1" x="332.743" y="277.448" width="12.2741" height="2.35296"/>
    <rect id="_263049384" class="fil13 str1" x="342.154" y="271.566" width="2.95796" height="2.7502"/>
    <rect id="_263049552" class="fil13 str5" x="342.154" y="282.154" width="2.9412" height="2.9412"/>
   </g>
   <g id="CestaRopa">
    <rect id="_263049000" class="fil9 str3" x="244.249" y="332.538" width="15.552" height="15.3905"/>
    <rect id="_263048400" class="fil0 str0" x="250.977" y="336.86" width="1.76472" height="6.47064"/>
   </g>
  </g>
  <g id="Cocina">
   <polygon id="BancoCocina" class="fil5 str6" points="378.037,356.272 339.801,356.272 242.154,356.272 242.154,391.567 242.154,426.861 277.448,426.861 277.448,391.567 339.801,391.567 339.801,484.508 378.037,484.508 378.037,391.567 "/>
   <g id="Encimera">
    <rect id="_263048376" class="fil4 str3" x="344.507" y="422.155" width="29.412" height="34.7061"/>
    <ellipse id="_263048712" class="fil4 str1" cx="353.919" cy="431.273" rx="4.11768" ry="3.82356"/>
    <circle id="_263048424" class="fil4 str1" cx="365.978" cy="431.861" r="6.17652"/>
    <circle id="_263047560" class="fil4 str1" cx="367.155" cy="448.92" r="4.4118"/>
    <circle id="_263048016" class="fil4 str1" cx="353.625" cy="448.332" r="5.00004"/>
   </g>
   <g id="Fregadero">
    <path id="_263047632" class="fil4 str3" d="M314.182 365.684l20.6504 0c1.1153,0 2.02784,1.05883 2.02784,2.35296l0 15.2942c0,1.29413 -0.912536,2.35296 -2.02784,2.35296l-20.6504 0c-1.1153,0 -2.02784,-1.05883 -2.02784,-2.35296l0 -15.2942c0,-1.29413 0.912536,-2.35296 2.02784,-2.35296z"/>
    <circle id="_263048064" class="fil4 str3" cx="331.796" cy="376.102" r="2.05884"/>
    <rect id="_263047656" class="fil7 str0" x="322.154" y="361.566" width="4.11768" height="3.52944"/>
    <rect id="_263047464" class="fil7 str0" x="322.743" y="362.155" width="2.9412" height="17.0589"/>
    <rect id="_263046744" class="fil7 str0" x="322.743" y="379.214" width="2.9412" height="1.17642"/>
   </g>
   <g id="MueblesCocina">
    <rect id="_263047128" class="fil9 str6" x="242.154" y="427.449" width="35.2944" height="35.2943"/>
    <rect id="_263047248" class="fil7 str3" x="243.33" y="356.86" width="19.4119" height="34.1178"/>
    <rect id="_263046984" class="fil7 str3" x="243.33" y="390.978" width="19.4119" height="35.2944"/>
    <rect id="_263047104" class="fil9 str6" x="242.154" y="462.155" width="35.2944" height="35.2943"/>
   </g>
  </g>
  <g id="Habitacion">
   <g id="Cama">
    <path id="_263046600" class="fil5 str3" d="M311.628 6.21952l85.9202 0c0.636887,0 1.15789,0.529357 1.15789,1.17648l0 109.413c0,0.647123 -0.521004,1.17648 -1.15789,1.17648l-85.9202 0c-0.636887,0 -1.15789,-0.529357 -1.15789,-1.17648l0 -109.413c0,-0.647123 0.521004,-1.17648 1.15789,-1.17648z"/>
    <path id="_263046288" class="fil5 str6" d="M355.765 6.21952l41.765 0c0.647064,0 1.17648,1.05883 1.17648,2.35296l0 12.9413c0,1.29413 -0.529416,2.35296 -1.17648,2.35296l-41.765 0c-0.647064,0 -1.17648,-1.05883 -1.17648,-2.35296l0 -12.9413c0,-1.29413 0.529416,-2.35296 1.17648,-2.35296z"/>
    <rect id="_263045928" class="fil5 str6" x="310.47" y="6.21952" width="44.118" height="17.6472" rx="2.35296" ry="2.35296"/>
    <rect id="_263046240" class="fil5 str3" x="310.47" y="33.2785" width="88.236" height="9.00101"/>
   </g>
   <rect id="Mesita2" class="fil0 str3" x="407.449" y="6.85776" width="29.4119" height="29.4119"/>
   <rect id="Mesita1" class="fil0 str3" x="274.507" y="6.85776" width="29.4119" height="29.4119"/>
   <g id="AAHabitacion">
    <path id="_263045376" class="fil8 str6" d="M252.456 171.144l54.0004 0c1.16483,0 2.11766,0.506592 2.11766,1.12583l0 9.51313c0,0.61924 -0.952831,1.12583 -2.11766,1.12583l-54.0004 0c-1.16483,0 -2.11766,-0.506592 -2.11766,-1.12583l0 -9.51313c0,-0.61924 0.952831,-1.12583 2.11766,-1.12583z"/>
    <path id="_263045280" class="fil8 str3" d="M252.024 171.144l54.865 0c0.927007,0 1.68537,0.421297 1.68537,0.936301l0 1.0686c0,0.515004 -0.758359,0.936301 -1.68537,0.936301l-54.865 0c-0.927007,0 -1.68537,-0.421297 -1.68537,-0.936301l0 -1.0686c0,-0.515004 0.758359,-0.936301 1.68537,-0.936301z"/>
   </g>
   <rect id="TeleHabitacion" class="fil1 str0" x="324.507" y="179.8" width="27.6473" height="3.52944" rx="0.352944" ry="0.352944"/>
  </g>
  <g id="Chillout">
   <rect id="CamaChillout" class="fil14 str7" x="64.2797" y="4.28127" width="139.638" height="78.4594"/>
   <rect id="ColchonChillout" class="fil15 str8" x="85.4025" y="4.28127" width="97.3929" height="78.4594"/>
   <g id="CojinesChillout">
    <rect id="_262655904" class="fil4 str8" x="93.9112" y="4.28127" width="26.5246" height="9.04713" rx="5.8824" ry="5.8824"/>
    <rect id="_647384440" class="fil4 str8" x="120.837" y="4.28127" width="26.5246" height="9.04713" rx="5.8824" ry="5.8824"/>
    <rect id="_647383240" class="fil4 str8" x="147.762" y="4.28127" width="26.5246" height="9.04713" rx="5.8824" ry="5.8824"/>
   </g>
  </g>
  <path id="LuzSofaAmbienteOn1" class="fil16" d="M570.98 387.448c5.29086,0 10.4168,0.702711 15.2942,2.01249l0 21.5185 5.88234 0 0.484004 71.7651 -6.36634 5.8824e-005 0 20.3393c-4.87739,1.30977 -10.0034,2.01249 -15.2942,2.01249 -32.4876,0 -58.824,-26.3364 -58.824,-58.824 0,-32.4876 26.3364,-58.824 58.824,-58.824z"/>
  <g id="LuzSofaAmbiente">
   <rect id="_263044464" class="fil0 str0" x="584.414" y="429.136" width="5.8824" height="35.2944"/>
   <rect id="LuzSofaAmbiente1" class="fil17 str1" x="566.862" y="422.742" width="8.23536" height="47.0592"/>
   <polygon id="_263045040" class="fil0 str0" points="570.391,417.96 588.039,417.96 588.039,475.607 570.391,475.607 570.391,469.801 571.568,469.801 571.568,473.254 586.862,473.254 586.862,419.136 571.568,419.136 571.568,422.742 570.391,422.742 "/>
  </g>
  <rect id="LuzSofaAmbienteOn2" class="fil18 str1" x="566.862" y="422.742" width="8.23536" height="47.0592"/>
  <path id="LuzEscobasOn1" class="fil16" d="M516.903 581.933c-0.709535,0.845242 -1.40254,1.70472 -2.0806,2.57649l31.4517 0 0 16.4707 -41.5842 0c-5.3971,11.4179 -8.41618,24.1795 -8.41618,37.6473 0,19.2413 6.16275,37.041 16.6167,51.5416l73.384 0 0 -108.236 -69.3714 0z"/>
  <path id="LuzEscobas" class="fil17 str3" d="M577.326 622.745l7.18288 0 0 31.7649 -7.17053 0c-2.83626,-4.05203 -4.59427,-9.67525 -4.59427,-15.8912 0,-6.20687 1.75295,-11.823 4.58192,-15.8738z"/>
  <path id="LuzEscobasOn2" class="fil19 str3" d="M577.326 622.745l7.18288 0 0 31.7649 -7.17053 0c-2.83626,-4.05203 -4.59427,-9.67525 -4.59427,-15.8912 0,-6.20687 1.75295,-11.823 4.58192,-15.8738z"/>
  <path id="LuzTerrazaSalonOn1" class="fil16" d="M390.429 560.087c-5.71075,11.6839 -8.91995,24.8137 -8.91995,38.6945 0,17.1429 4.89404,33.1404 13.3535,46.6815l86.7044 0 -9.41184 -30.0002 0 -34.0148 -81.726 -21.361z"/>
  <path id="LuzTerrazaSalon" class="fil17 str3" d="M462.563 582.899l7.18288 0 0 31.7649 -7.17053 0c-2.83626,-4.05203 -4.59427,-9.67525 -4.59427,-15.8912 0,-6.20687 1.75295,-11.823 4.58192,-15.8738z"/>
  <path id="LuzTerrazaSalonOn2" class="fil19 str3" d="M462.563 582.899l7.18288 0 0 31.7649 -7.17053 0c-2.83626,-4.05203 -4.59427,-9.67525 -4.59427,-15.8912 0,-6.20687 1.75295,-11.823 4.58192,-15.8738z"/>
  <path id="LuzTerrazaOn1" class="fil16" d="M200.159 386.093c-30.9807,13.6932 -51.7846,37.9814 -51.7846,80.372 0,42.3907 39.5046,88.236 88.236,88.236 21.4661,0 41.1393,-7.66841 56.4367,-20.4113l-55.0107 -14.4867 0 -95.1771 -37.6473 -0.117766 -0.230002 -38.4151zm36.0794 -267.138c-48.7314,0 -88.236,39.5046 -88.236,88.236 0,48.7314 39.5046,88.236 88.236,88.236 0.404474,0 0.806536,-0.00988243 1.20972,-0.0152942l0 -176.441c-0.40318,-0.00541181 -0.805241,-0.0152942 -1.20972,-0.0152942zm-86.1741 -114.674c-1.29477,6.01375 -1.98249,12.2531 -1.98249,18.6539 0,48.7314 39.5046,88.236 88.236,88.236 0.377944,0 0.753594,-0.00952948 1.13036,-0.0142942l0 -106.876 -87.3838 0z"/>
  <g id="LuzTerraza">
   <path id="LuzTerraza3" class="fil17 str3" d="M229.427 450.582l7.18288 0 0 31.7649 -7.17053 0c-2.83626,-4.05203 -4.59427,-9.67525 -4.59427,-15.8912 0,-6.20687 1.75295,-11.823 4.58192,-15.8738z"/>
   <path id="LuzTerraza2" class="fil17 str3" d="M229.055 191.308l7.18288 0 0 31.7649 -7.17053 0c-2.83626,-4.05203 -4.59427,-9.67525 -4.59427,-15.8912 0,-6.20687 1.75295,-11.823 4.58192,-15.8738z"/>
   <path id="LuzTerraza1" class="fil17 str3" d="M229.135 7.0527l7.18288 0 0 31.7649 -7.17053 0c-2.83626,-4.05203 -4.59427,-9.67525 -4.59427,-15.8912 0,-6.20687 1.75295,-11.823 4.58192,-15.8738z"/>
  </g>
  <g id="LuzTerrazaOn2">
   <path id="LuzTerraza3_0" class="fil19 str3" d="M229.427 450.582l7.18288 0 0 31.7649 -7.17053 0c-2.83626,-4.05203 -4.59427,-9.67525 -4.59427,-15.8912 0,-6.20687 1.75295,-11.823 4.58192,-15.8738z"/>
   <path id="LuzTerraza2_1" class="fil19 str3" d="M229.055 191.308l7.18288 0 0 31.7649 -7.17053 0c-2.83626,-4.05203 -4.59427,-9.67525 -4.59427,-15.8912 0,-6.20687 1.75295,-11.823 4.58192,-15.8738z"/>
   <path id="LuzTerraza1_2" class="fil19 str3" d="M229.135 7.0527l7.18288 0 0 31.7649 -7.17053 0c-2.83626,-4.05203 -4.59427,-9.67525 -4.59427,-15.8912 0,-6.20687 1.75295,-11.823 4.58192,-15.8738z"/>
  </g>
  <path id="LuzSofaOn1" class="fil16" d="M424.483 323.591c16.2438,0 29.412,13.1682 29.412,29.412 0,6.7897 -2.3019,13.041 -6.16616,18.019 3.86426,4.97798 6.16616,11.2293 6.16616,18.019 0,6.7897 -2.3019,13.0412 -6.16616,18.0191 3.86426,4.97792 6.16616,11.2293 6.16616,18.019 0,6.7897 -2.3019,13.0412 -6.16616,18.0191 3.86426,4.97792 6.16616,11.2293 6.16616,18.019 0,6.7897 -2.3019,13.0412 -6.16616,18.0191 3.86426,4.97792 6.16616,11.2293 6.16616,18.019 0,6.7897 -2.3019,13.041 -6.16616,18.019 3.86426,4.97798 6.16616,11.2293 6.16616,18.019 0,15.8241 -12.4971,28.7273 -28.1597,29.3836l-16.7142 -4.36127c-8.37212,-5.18433 -13.95,-14.4513 -13.95,-25.0224 0,-6.7897 2.3019,-13.041 6.16616,-18.019 -3.86426,-4.97798 -6.16616,-11.2293 -6.16616,-18.019 0,-6.7897 2.3019,-13.0411 6.16616,-18.019 -3.86426,-4.97792 -6.16616,-11.2294 -6.16616,-18.0191 0,-6.7897 2.3019,-13.0411 6.16616,-18.019 -3.86426,-4.97792 -6.16616,-11.2294 -6.16616,-18.0191 0,-6.7897 2.3019,-13.0411 6.16616,-18.019 -3.86426,-4.97792 -6.16616,-11.2294 -6.16616,-18.0191 0,-6.7897 2.3019,-13.041 6.16616,-18.019 -3.86426,-4.97798 -6.16616,-11.2293 -6.16616,-18.019 0,-16.2438 13.1682,-29.412 29.412,-29.412zm146.043 36.038c9.43448,0 17.8305,4.44286 23.2126,11.3496l-7.46512 0 0 40.0003 3.84068 0c-3.92921,3.51079 -8.8066,5.98199 -14.2009,6.98105l-5.52228 0 0 0.491298c-16.1815,-0.0728829 -29.277,-13.2116 -29.277,-29.4103 0,-16.2438 13.1682,-29.412 29.412,-29.412zm4.57092 109.244c3.28526,0.939537 6.33534,2.43614 9.04166,4.38103l-12.5711 0 0 -3.45297 3.52944 0 0 -0.928066zm-4.70592 0.928066l0 5.80593 16.6222 0c2.22325,2.06655 4.12638,4.47303 5.62657,7.1367l-6.36634 0 0 75.2933c-4.55298,2.89196 -9.95431,4.56786 -15.7475,4.56786 -16.2438,0 -29.412,-13.1682 -29.412,-29.412 0,-5.79928 1.67937,-11.2059 4.57692,-15.7619 -5.02292,-5.27633 -8.10636,-12.4161 -8.10636,-20.2762 0,-16.1987 13.0955,-29.3374 29.277,-29.4103l0 2.05655 3.52944 0z"/>
  <g id="LuzSofa">
   <g>
    <rect id="_263041320" class="fil3 str9" x="564.644" y="527.311" width="11.7648" height="11.7648"/>
    <rect id="LuzSofa9" class="fil17 str9" x="566.997" y="529.663" width="7.05888" height="7.05888"/>
   </g>
   <g>
    <rect id="_263040528" class="fil3 str9" x="564.644" y="491.272" width="11.7648" height="11.7648"/>
    <rect id="LuzSofa8" class="fil17 str9" x="566.997" y="493.625" width="7.05888" height="7.05888"/>
   </g>
   <g>
    <rect id="_263040768" class="fil3 str9" x="564.644" y="383.158" width="11.7648" height="11.7648"/>
    <rect id="LuzSofa7" class="fil17 str9" x="566.997" y="385.511" width="7.05888" height="7.05888"/>
   </g>
   <g>
    <rect id="_263039952" class="fil3 str9" x="418.601" y="527.311" width="11.7648" height="11.7648"/>
    <rect id="LuzSofa6" class="fil17 str9" x="420.954" y="529.663" width="7.05888" height="7.05888"/>
   </g>
   <g>
    <rect id="_263039736" class="fil3 str9" x="418.601" y="491.272" width="11.7648" height="11.7648"/>
    <rect id="LuzSofa5" class="fil17 str9" x="420.954" y="493.625" width="7.05888" height="7.05888"/>
   </g>
   <g>
    <rect id="_263040192" class="fil3 str9" x="418.601" y="455.234" width="11.7648" height="11.7648"/>
    <rect id="LuzSofa4" class="fil17 str9" x="420.954" y="457.587" width="7.05888" height="7.05888"/>
   </g>
   <g>
    <rect id="_263039496" class="fil3 str9" x="418.601" y="419.196" width="11.7648" height="11.7648"/>
    <rect id="LuzSofa3" class="fil17 str9" x="420.954" y="421.549" width="7.05888" height="7.05888"/>
   </g>
   <g>
    <rect id="_263039208" class="fil3 str9" x="418.601" y="383.158" width="11.7648" height="11.7648"/>
    <rect id="LuzSofa2" class="fil17 str9" x="420.954" y="385.511" width="7.05888" height="7.05888"/>
   </g>
   <g>
    <rect id="_263038440" class="fil3 str9" x="418.601" y="347.12" width="11.7648" height="11.7648"/>
    <rect id="LuzSofa1" class="fil17 str9" x="420.954" y="349.473" width="7.05888" height="7.05888"/>
   </g>
  </g>
  <g id="LuzSofaOn2">
   <rect id="_263038680" class="fil20 str0" x="566.997" y="385.511" width="7.05888" height="7.05888"/>
   <rect id="_263037576" class="fil20 str0" x="420.954" y="349.473" width="7.05888" height="7.05888"/>
   <rect id="_263037480" class="fil20 str0" x="420.954" y="385.511" width="7.05888" height="7.05888"/>
   <rect id="_263037672" class="fil20 str0" x="420.954" y="421.549" width="7.05888" height="7.05888"/>
   <rect id="_263037600" class="fil20 str0" x="420.954" y="457.587" width="7.05888" height="7.05888"/>
   <rect id="_263037408" class="fil20 str0" x="566.997" y="493.625" width="7.05888" height="7.05888"/>
   <rect id="_263037888" class="fil20 str0" x="566.997" y="529.663" width="7.05888" height="7.05888"/>
   <rect id="_263037696" class="fil20 str0" x="420.954" y="493.625" width="7.05888" height="7.05888"/>
   <rect id="_263038152" class="fil20 str0" x="420.954" y="529.663" width="7.05888" height="7.05888"/>
  </g>
  <path id="LuzMesaComedorOn1" class="fil16" d="M424.483 179.438c6.11969,0 11.8027,1.86937 16.5094,5.06804l-6.48429 0 0 4.70592 11.8686 0c0.510475,0.56871 0.999066,1.15736 1.46454,1.76472l-18.6012 0 0 1.76472 19.8533 0c3.03544,4.62709 4.80168,10.1613 4.80168,16.1086 0,6.7897 -2.3019,13.0411 -6.16622,18.0191 3.86432,4.97798 6.16622,11.2293 6.16622,18.019 0,6.7897 -2.3019,13.0411 -6.16622,18.0191 3.86432,4.97798 6.16622,11.2293 6.16622,18.019 0,2.68867 -0.361297,5.29275 -1.0373,7.76694 2.58396,-0.7423 5.31345,-1.14083 8.13618,-1.14083 6.89752,0 13.2397,2.37525 18.2554,6.35117 5.01569,-3.97591 11.3579,-6.35117 18.2554,-6.35117 6.89752,0 13.2397,2.37525 18.2554,6.35117 5.01569,-3.97591 11.3579,-6.35117 18.2554,-6.35117 2.8232,0 5.55328,0.39818 8.13753,1.14089 -0.675829,-2.47449 -1.03866,-5.07822 -1.03866,-7.767 0,-6.7897 2.3019,-13.041 6.16622,-18.019 -3.86432,-4.97798 -6.16622,-11.2294 -6.16622,-18.0191 0,-6.7897 2.3019,-13.041 6.16622,-18.019 -3.86432,-4.97798 -6.16622,-11.2294 -6.16622,-18.0191 0,-14.672 10.7436,-26.8334 24.7926,-29.0499l9.24066 0c9.53801,1.50542 17.5518,7.59453 21.7145,15.9416l0 26.2151c-0.869242,1.74284 -1.90625,3.38738 -3.09002,4.91227 1.18377,1.52489 2.22078,3.16944 3.09002,4.91221l0 26.2136c-0.869242,1.74284 -1.90625,3.38738 -3.09002,4.91227 1.18377,1.52489 2.22078,3.16944 3.09002,4.91221l0 26.2136c-0.869242,1.74284 -1.90625,3.38738 -3.09002,4.91227 3.86432,4.97798 6.16622,11.2293 6.16622,18.019 0,16.2438 -13.1682,29.412 -29.412,29.412 -6.89752,0 -13.2397,-2.37525 -18.2554,-6.35117 -5.01569,3.97591 -11.3579,6.35117 -18.2554,6.35117 -6.89752,0 -13.2397,-2.37525 -18.2554,-6.35117 -5.01569,3.97591 -11.3579,6.35117 -18.2554,6.35117 -6.89752,0 -13.2397,-2.37525 -18.2554,-6.35117 -5.01569,3.97591 -11.3579,6.35117 -18.2554,6.35117 -6.89752,0 -13.2397,-2.37525 -18.2554,-6.35117 -5.01569,3.97591 -11.3579,6.35117 -18.2554,6.35117 -16.2438,0 -29.412,-13.1682 -29.412,-29.412 0,-6.7897 2.3019,-13.041 6.16622,-18.019 -3.86432,-4.97798 -6.16622,-11.2294 -6.16622,-18.0191 0,-6.7897 2.3019,-13.041 6.16622,-18.019 -3.86432,-4.97798 -6.16622,-11.2294 -6.16622,-18.0191 0,-6.7897 2.3019,-13.041 6.16622,-18.019 -3.86432,-4.97798 -6.16622,-11.2294 -6.16622,-18.0191 0,-16.2438 13.1682,-29.412 29.412,-29.412z"/>
  <g id="LuzMesaComedor">
   <g>
    <rect id="_263036928" class="fil3 str9" x="418.601" y="202.968" width="11.7648" height="11.7648"/>
    <rect id="LuzMesaComedor12" class="fil17 str9" x="420.954" y="205.321" width="7.05888" height="7.05888"/>
   </g>
   <g>
    <rect id="_263036736" class="fil3 str9" x="418.601" y="239.006" width="11.7648" height="11.7648"/>
    <rect id="LuzMesaComedor11" class="fil17 str9" x="420.954" y="241.359" width="7.05888" height="7.05888"/>
   </g>
   <g>
    <rect id="_263036376" class="fil3 str9" x="418.601" y="275.044" width="11.7648" height="11.7648"/>
    <rect id="LuzMesaComedor10" class="fil17 str9" x="420.954" y="277.397" width="7.05888" height="7.05888"/>
   </g>
   <g>
    <rect id="_263036520" class="fil3 str9" x="418.601" y="311.082" width="11.7648" height="11.7648"/>
    <rect id="LuzMesaComedor8" class="fil17 str9" x="420.954" y="313.435" width="7.05888" height="7.05888"/>
   </g>
   <g>
    <rect id="_263035824" class="fil3 str9" x="455.111" y="311.082" width="11.7648" height="11.7648"/>
    <rect id="LuzMesaComedor7" class="fil17 str9" x="457.464" y="313.435" width="7.05888" height="7.05888"/>
   </g>
   <g>
    <rect id="_263035272" class="fil3 str9" x="491.622" y="311.082" width="11.7648" height="11.7648"/>
    <rect id="LuzMesaComedor6" class="fil17 str9" x="493.975" y="313.435" width="7.05888" height="7.05888"/>
   </g>
   <g>
    <rect id="_263034456" class="fil3 str9" x="528.133" y="311.082" width="11.7648" height="11.7648"/>
    <rect id="LuzMesaComedor5" class="fil17 str9" x="530.486" y="313.435" width="7.05888" height="7.05888"/>
   </g>
   <g>
    <rect id="_263034888" class="fil3 str9" x="564.644" y="311.082" width="11.7648" height="11.7648"/>
    <rect id="LuzMesaComedor4" class="fil17 str9" x="566.997" y="313.435" width="7.05888" height="7.05888"/>
   </g>
   <g>
    <rect id="_263034768" class="fil3 str9" x="564.644" y="275.044" width="11.7648" height="11.7648"/>
    <rect id="LuzMesaComedor3" class="fil17 str9" x="566.997" y="277.397" width="7.05888" height="7.05888"/>
   </g>
   <g>
    <rect id="_263033736" class="fil3 str9" x="564.644" y="239.006" width="11.7648" height="11.7648"/>
    <rect id="LuzMesaComedor2" class="fil17 str9" x="566.997" y="241.359" width="7.05888" height="7.05888"/>
   </g>
   <g>
    <rect id="_263034264" class="fil3 str9" x="564.644" y="202.968" width="11.7648" height="11.7648"/>
    <rect id="LuzMesaComedor1" class="fil17 str9" x="566.997" y="205.321" width="7.05888" height="7.05888"/>
   </g>
  </g>
  <g id="LuzMesaComedorOn2">
   <rect id="_263033256" class="fil20 str0" x="420.954" y="205.321" width="7.05888" height="7.05888"/>
   <rect id="_263033232" class="fil20 str0" x="566.997" y="205.321" width="7.05888" height="7.05888"/>
   <rect id="_263033016" class="fil20 str0" x="420.954" y="241.359" width="7.05888" height="7.05888"/>
   <rect id="_263033424" class="fil20 str0" x="566.997" y="241.359" width="7.05888" height="7.05888"/>
   <rect id="_263032968" class="fil20 str0" x="420.954" y="277.397" width="7.05888" height="7.05888"/>
   <rect id="_263032512" class="fil20 str0" x="566.997" y="277.397" width="7.05888" height="7.05888"/>
   <rect id="_263032440" class="fil20 str0" x="420.954" y="313.435" width="7.05888" height="7.05888"/>
   <rect id="_263032104" class="fil20 str0" x="457.464" y="313.435" width="7.05888" height="7.05888"/>
   <rect id="_263032344" class="fil20 str0" x="493.975" y="313.435" width="7.05888" height="7.05888"/>
   <rect id="_263032248" class="fil20 str0" x="530.486" y="313.435" width="7.05888" height="7.05888"/>
   <rect id="_263032224" class="fil20 str0" x="566.997" y="313.435" width="7.05888" height="7.05888"/>
  </g>
  <path id="LuzCocinaOn1" class="fil16" d="M302.541 359.629c16.2438,0 29.412,13.1682 29.412,29.412 0,6.7897 -2.3019,13.0412 -6.16616,18.0191 3.86426,4.97792 6.16616,11.2293 6.16616,18.019 0,6.7897 -2.3019,13.0412 -6.16616,18.0191 3.86426,4.97792 6.16616,11.2293 6.16616,18.019 0,6.7897 -2.3019,13.0412 -6.16616,18.0191 3.86426,4.97792 6.16616,11.2293 6.16616,18.019 0,16.2438 -13.1682,29.412 -29.412,29.412 -16.1452,0 -29.2498,-13.0093 -29.4083,-29.1171l4.31544 0 0 -15.6434c0.567181,-0.925184 1.18413,-1.8166 1.84701,-2.67055 -0.662887,-0.853948 -1.27977,-1.74537 -1.84701,-2.67055l0 -13.7217 0 -0.58824 0 -16.3871c0.567181,-0.925184 1.18413,-1.8166 1.84701,-2.67055 -0.662887,-0.853948 -1.27983,-1.74537 -1.84701,-2.67055l0 -12.978 -4.22456 0c-0.0623534,-0.782006 -0.094589,-1.57248 -0.094589,-2.37055 0,-6.7897 2.3019,-13.0411 6.16616,-18.019 -3.86426,-4.97792 -6.16616,-11.2294 -6.16616,-18.0191 0,-16.2438 13.1682,-29.412 29.412,-29.412z"/>
  <g id="LuzCocina">
   <g>
    <rect id="_263031624" class="fil3 str10" x="296.659" y="383.158" width="11.7648" height="11.7648"/>
    <rect id="LuzCocina4" class="fil17 str10" x="299.011" y="385.511" width="7.05888" height="7.05888"/>
   </g>
   <g>
    <rect id="_263031336" class="fil3 str9" x="296.659" y="419.196" width="11.7648" height="11.7648"/>
    <rect id="LuzCocina3" class="fil17 str9" x="299.011" y="421.549" width="7.05888" height="7.05888"/>
   </g>
   <g>
    <rect id="_263030736" class="fil3 str9" x="296.659" y="455.234" width="11.7648" height="11.7648"/>
    <rect id="LuzCocina2" class="fil17 str9" x="299.011" y="457.587" width="7.05888" height="7.05888"/>
   </g>
   <g>
    <rect id="_263030904" class="fil3 str9" x="296.659" y="491.272" width="11.7648" height="11.7648"/>
    <rect id="LuzCocina1" class="fil17 str9" x="299.011" y="493.625" width="7.05888" height="7.05888"/>
   </g>
  </g>
  <g id="LuzCocinaOn2">
   <rect id="_264243608" class="fil20 str0" x="299.011" y="385.511" width="7.05888" height="7.05888"/>
   <rect id="_264243488" class="fil20 str0" x="299.011" y="421.549" width="7.05888" height="7.05888"/>
   <rect id="_264243920" class="fil20 str0" x="299.011" y="457.587" width="7.05888" height="7.05888"/>
   <rect id="_264243728" class="fil20 str0" x="299.011" y="493.625" width="7.05888" height="7.05888"/>
  </g>
  <path id="LuzHabitacionOn1" class="fil16" d="M288.195 15.0005c16.2438,0 29.412,13.1682 29.412,29.412 0,10.2462 -5.24045,19.2671 -13.1862,24.5329 7.94571,5.26581 13.1862,14.2866 13.1862,24.5328 0,10.2462 -5.24045,19.2671 -13.1862,24.5329 7.94571,5.26581 13.1862,14.2866 13.1862,24.5328 0,12.9208 -8.33195,23.8949 -19.9158,27.8444l-18.9924 0c-11.5839,-3.94956 -19.9158,-14.9236 -19.9158,-27.8444 0,-10.2462 5.24045,-19.267 13.1862,-24.5328 -7.94571,-5.26581 -13.1862,-14.2867 -13.1862,-24.5329 0,-10.2462 5.24045,-19.267 13.1862,-24.5328 -7.94571,-5.26581 -13.1862,-14.2867 -13.1862,-24.5329 0,-3.69797 0.684476,-7.23564 1.93031,-10.4957l4.97027 0 0 -8.43101c5.39475,-6.41076 13.4769,-10.4853 22.5114,-10.4853zm136.288 0c9.41737,0 17.8004,4.4265 23.1836,11.3119l0 36.198c-1.95519,2.50049 -4.3055,4.67721 -6.95782,6.43499 2.65231,1.75778 5.00263,3.9345 6.95782,6.43499l0 17.3604 -0.620122 0 0 19.6017c-1.82519,2.18049 -3.96009,4.09297 -6.3377,5.66869 2.37761,1.57572 4.51251,3.4882 6.3377,5.66869l0 37.7296c-5.39522,6.44599 -13.5001,10.5465 -22.5635,10.5465 -16.2438,0 -29.412,-13.1682 -29.412,-29.412 0,-10.2462 5.24045,-19.267 13.1862,-24.5328 -7.94571,-5.26581 -13.1862,-14.2867 -13.1862,-24.5329 0,-10.2462 5.24045,-19.267 13.1862,-24.5328 -7.94571,-5.26581 -13.1862,-14.2867 -13.1862,-24.5329 0,-16.2438 13.1682,-29.412 29.412,-29.412z"/>
  <g id="LuzHabitacion">
   <g>
    <rect id="_264243632" class="fil3 str9" x="282.312" y="136.662" width="11.7648" height="11.7648"/>
    <rect id="LuzHabitacion6" class="fil17 str9" x="284.665" y="139.015" width="7.05888" height="7.05888"/>
   </g>
   <g>
    <rect id="_264243248" class="fil3 str9" x="282.312" y="87.5958" width="11.7648" height="11.7648"/>
    <rect id="LuzHabitacion5" class="fil17 str9" x="284.665" y="89.9488" width="7.05888" height="7.05888"/>
   </g>
   <g>
    <rect id="_264243008" class="fil3 str10" x="282.312" y="38.5301" width="11.7648" height="11.7648"/>
    <rect id="LuzHabitacion4" class="fil17 str10" x="284.665" y="40.8831" width="7.05888" height="7.05888"/>
   </g>
   <g>
    <rect id="_264250496" class="fil3 str10" x="418.601" y="38.5301" width="11.7648" height="11.7648"/>
    <rect id="LuzHabitacion3" class="fil17 str10" x="420.954" y="40.8831" width="7.05888" height="7.05888"/>
   </g>
   <g>
    <rect id="_264249776" class="fil3 str9" x="418.601" y="87.5958" width="11.7648" height="11.7648"/>
    <rect id="LuzHabitacion2" class="fil17 str9" x="420.954" y="89.9488" width="7.05888" height="7.05888"/>
   </g>
   <g>
    <rect id="_264249752" class="fil3 str9" x="418.601" y="136.662" width="11.7648" height="11.7648"/>
    <rect id="LuzHabitacion1" class="fil17 str9" x="420.954" y="139.015" width="7.05888" height="7.05888"/>
   </g>
  </g>
  <g id="LuzHabitacionOn2">
   <rect id="_264248864" class="fil20 str0" x="284.665" y="40.8831" width="7.05888" height="7.05888"/>
   <rect id="_264249464" class="fil20 str0" x="284.665" y="89.9488" width="7.05888" height="7.05888"/>
   <rect id="_264249008" class="fil20 str0" x="284.665" y="139.015" width="7.05888" height="7.05888"/>
   <rect id="_264248984" class="fil20 str0" x="420.954" y="40.8831" width="7.05888" height="7.05888"/>
   <rect id="_264248840" class="fil20 str0" x="420.954" y="89.9488" width="7.05888" height="7.05888"/>
   <rect id="_264248816" class="fil20 str0" x="420.954" y="139.015" width="7.05888" height="7.05888"/>
  </g>
  <path id="LuzAseoOn1" class="fil16" d="M345.776 298.945c1.64331,2.1169 3.00379,4.46415 4.02515,6.98511l0 22.0655c-4.36397,10.7773 -14.9288,18.3804 -27.271,18.3804 -7.20782,0 -13.8088,-2.59426 -18.9237,-6.89799 -2.67984,0.803653 -5.51951,1.23742 -8.46095,1.23742 -13.4395,0 -24.7733,-9.01419 -28.2862,-21.3263l0 -16.1651c3.33491,-11.6961 13.7268,-20.4169 26.279,-21.263 -0.0118824,-0.343767 -0.0201178,-0.688476 -0.0201178,-1.03513 0,-6.7897 2.3019,-13.0412 6.16616,-18.0191 -3.86426,-4.97792 -6.16616,-11.2293 -6.16616,-18.019 0,-6.7897 2.3019,-13.0412 6.16616,-18.0191 -3.86426,-4.97792 -6.16616,-11.2293 -6.16616,-18.019 0,-7.548 2.84443,-14.4308 7.51829,-19.638l43.7874 0c4.67386,5.20728 7.51829,12.09 7.51829,19.638 0,6.7897 -2.3019,13.0411 -6.16616,18.019 2.87673,3.70579 4.88727,8.11753 5.72716,12.9316l-6.40793 0 0 58.824 0.925772 0c-0.0810594,0.107413 -0.162531,0.214472 -0.245002,0.320708z"/>
  <g id="LuzAseo">
   <g>
    <rect id="_264248096" class="fil3 str10" x="289.264" y="305.421" width="11.7648" height="11.7648"/>
    <rect id="LuzAseo5" class="fil17 str10" x="291.616" y="307.774" width="7.05888" height="7.05888"/>
   </g>
   <g>
    <rect id="_264248744" class="fil3 str10" x="316.648" y="311.082" width="11.7648" height="11.7648"/>
    <rect id="LuzAseo4" class="fil17 str10" x="319.001" y="313.435" width="7.05888" height="7.05888"/>
   </g>
   <g>
    <rect id="_264247352" class="fil3 str10" x="316.648" y="275.044" width="11.7648" height="11.7648"/>
    <rect id="LuzAseo3" class="fil17 str10" x="319.001" y="277.397" width="7.05888" height="7.05888"/>
   </g>
   <g>
    <rect id="_264247688" class="fil3 str10" x="316.648" y="239.006" width="11.7648" height="11.7648"/>
    <rect id="LuzAseo2" class="fil17 str10" x="319.001" y="241.359" width="7.05888" height="7.05888"/>
   </g>
   <g>
    <rect id="_264246752" class="fil3 str10" x="316.648" y="202.968" width="11.7648" height="11.7648"/>
    <rect id="LuzAseo1" class="fil17 str10" x="319.001" y="205.321" width="7.05888" height="7.05888"/>
   </g>
  </g>
  <g id="LuzAseoOn2">
   <rect id="_264246728" class="fil20 str0" x="319.001" y="205.321" width="7.05888" height="7.05888"/>
   <rect id="_264246584" class="fil20 str0" x="319.001" y="241.359" width="7.05888" height="7.05888"/>
   <rect id="_264246704" class="fil20 str0" x="319.001" y="277.397" width="7.05888" height="7.05888"/>
   <rect id="_264245840" class="fil20 str0" x="319.001" y="313.435" width="7.05888" height="7.05888"/>
   <rect id="_264245816" class="fil20 str0" x="291.616" y="307.774" width="7.05888" height="7.05888"/>
  </g>
  <path id="LuzCuadroOn1" class="fil16" d="M484.053 200.319c0,-3.79756 0.362062,-7.51012 1.05071,-11.1068l3.52214 0 0 -9.41184 108.236 0 0 43.91c-9.04595,20.8483 -29.8106,35.4326 -53.985,35.4326 -32.4876,0 -58.824,-26.3364 -58.824,-58.824z"/>
  <g id="LuzCuadro">
   <rect id="_265729272" class="fil0 str0" transform="matrix(2.64788E-014 -1 1 2.64788E-014 525.742 186.884)" width="5.8824" height="35.2944"/>
   <rect id="LuzSofaAmbiente1_3" class="fil17 str1" transform="matrix(2.64788E-014 -1 1 2.64788E-014 519.348 204.437)" width="8.23536" height="47.0592"/>
   <polygon id="_265729200" class="fil0 str0" points="514.565,200.907 514.565,183.26 572.213,183.26 572.213,200.907 566.407,200.907 566.407,199.731 569.86,199.731 569.86,184.436 515.742,184.436 515.742,199.731 519.348,199.731 519.348,200.907 "/>
  </g>
  <rect id="LuzCuadroOn2" class="fil18 str1" transform="matrix(2.64788E-014 -1 1 2.64788E-014 519.348 204.437)" width="8.23536" height="47.0592"/>
  <path id="LuzChilloutOn1" class="fil16" d="M102.454 4.28127c1.32366,3.34679 2.05125,6.99429 2.05125,10.8118 0,16.2438 -13.1682,29.412 -29.412,29.412 -16.2438,0 -29.412,-13.1682 -29.412,-29.412 0,-3.81756 0.727594,-7.46506 2.05125,-10.8118l54.7215 0zm117.996 0c0.0340003,0.0808241 0.0674711,0.161884 0.100883,0.24312l0.00029412 0.000352944 -0.000117648 0c1.4116,3.4405 2.19055,7.20753 2.19055,11.1566 0,16.2438 -13.1682,29.412 -29.412,29.412 -16.2438,0 -29.412,-13.1682 -29.412,-29.412 0,-3.93885 0.774829,-7.69653 2.17955,-11.1298l-0.000117648 0 0.000117648 0c0.0369415,-0.0902948 0.0742359,-0.180472 0.11206,-0.270296l22.8669 0 31.2871 0 0.0867654 0z"/>
  <g id="LuzChillout">
   <circle id="LuxChillout2" class="fil21 str8" cx="75.0936" cy="15.0931" r="8.8236"/>
   <circle id="LuzChillout1" class="fil21 str8" cx="193.33" cy="15.6814" r="8.8236"/>
  </g>
  <g id="LuzChilloutOn2">
   <circle id="LuxChillout4" class="fil19 str8" cx="75.0936" cy="15.0931" r="8.8236"/>
   <circle id="LuzChillout3" class="fil19 str8" cx="193.33" cy="15.6814" r="8.8236"/>
  </g>
  <path id="LuzBarbacoaOn1" class="fil16" d="M185.338 453.061c-31.9184,-13.2828 -54.3612,-44.7658 -54.3612,-81.4943 0,-34.4473 19.7422,-64.28 48.527,-78.8118l21.4736 26.4585 -0.58824 105.295 -15.0511 28.5527z"/>
  <circle id="LuzBarbacoa" class="fil21 str8" cx="219.212" cy="337.449" r="8.8236"/>
  <circle id="LuzBarbacoaOn2" class="fil19 str8" cx="219.212" cy="337.449" r="8.8236"/>
  <g id="GrupoPersiana">
   <g id="Persiana">
    <rect id="_264246392" class="fil22 str5" x="93.1587" y="119.126" width="92.9419" height="4.08827"/>
    <rect id="_264246080" class="fil22 str5" x="93.1587" y="123.214" width="92.9419" height="4.08827"/>
    <rect id="_264246200" class="fil22 str5" x="93.1587" y="127.303" width="92.9419" height="4.08827"/>
    <rect id="_264246440" class="fil22 str5" x="93.1587" y="131.391" width="92.9419" height="4.08827"/>
    <rect id="_264245120" class="fil22 str5" x="93.1587" y="135.479" width="92.9419" height="4.08827"/>
    <rect id="_264245072" class="fil22 str5" x="93.1587" y="139.568" width="92.9419" height="4.08827"/>
    <rect id="_264245528" class="fil22 str5" x="93.1587" y="143.656" width="92.9419" height="4.08827"/>
    <rect id="_264245024" class="fil22 str5" x="93.1587" y="147.744" width="92.9419" height="4.08827"/>
    <rect id="_264245144" class="fil22 str5" x="93.1587" y="151.832" width="92.9419" height="4.08827"/>
    <rect id="_264245480" class="fil22 str5" x="93.1587" y="155.921" width="92.9419" height="4.08827"/>
    <rect id="_264245432" class="fil22 str5" x="93.1587" y="160.009" width="92.9419" height="4.08827"/>
    <rect id="_264244400" class="fil22 str5" x="93.1587" y="164.097" width="92.9419" height="4.08827"/>
    <rect id="_264244184" class="fil22 str5" x="93.1587" y="168.185" width="92.9419" height="4.08827"/>
    <rect id="_264244616" class="fil22 str5" x="93.1587" y="172.274" width="92.9419" height="4.08827"/>
    <rect id="_264244352" class="fil22 str5" x="93.1587" y="176.362" width="92.9419" height="4.08827"/>
    <rect id="_264244880" class="fil22 str5" x="93.1587" y="180.45" width="92.9419" height="4.08827"/>
    <rect id="_264244328" class="fil22 str5" x="93.1587" y="184.538" width="92.9419" height="4.08827"/>
    <rect id="_49596344" class="fil22 str5" x="93.1587" y="188.627" width="92.9419" height="4.08827"/>
    <rect id="_258908936" class="fil22 str5" x="93.1587" y="192.715" width="92.9419" height="4.08827"/>
    <rect id="_48271512" class="fil22 str5" x="93.1587" y="196.803" width="92.9419" height="4.08827"/>
    <path id="_49596056" class="fil0 str3" d="M90.2175 117.361l98.8243 0 0 86.4713 -98.8243 0 0 -86.4713zm2.35296 1.76472l94.1184 0 0 82.3536 -94.1184 0 0 -82.3536z"/>
   </g>
   <g id="PararPersiana">
    <circle id="_48272352" class="fil5 str0" cx="135.165" cy="217.647" r="11.4707"/>
    <circle id="_48272208" class="fil23 str0" cx="135.165" cy="217.647" r="8.8236"/>
    <rect id="_48272688" class="fil5 str0" x="128.989" y="215.882" width="12.353" height="3.52944"/>
   </g>
   <polygon id="BajarPersiana" class="fil24 str0" points="116.432,208.762 109.459,208.762 109.459,215.821 105.93,215.821 112.989,226.409 120.002,215.821 116.518,215.821 "/>
   <polygon id="SubirPersiana" class="fil24 str0" points="92.7839,226.26 99.7569,226.26 99.7569,219.201 103.286,219.201 96.2274,208.613 89.2141,219.201 92.698,219.201 "/>
  </g>
  <g id="GrupoPantalla">
   <g id="Botones_x0020_Pantalla">
    <polygon id="SubirPantalla" class="fil24 str0" points="441.377,449.517 448.349,449.517 448.349,442.458 451.879,442.458 444.82,431.87 437.807,442.458 441.291,442.458 "/>
    <polygon id="BajarPantalla" class="fil24 str0" points="465.003,432.194 458.03,432.194 458.03,439.253 454.501,439.253 461.56,449.841 468.573,439.253 465.089,439.253 "/>
    <g id="ParaPantalla">
     <circle id="_260116648" class="fil5 str0" cx="483.913" cy="441.809" r="11.4707"/>
     <circle id="_260115112" class="fil23 str0" cx="483.913" cy="441.809" r="8.8236"/>
     <rect id="_260113816" class="fil5 str0" x="477.736" y="440.045" width="12.353" height="3.52944"/>
    </g>
   </g>
   <g id="Pantalla_x0020_Movil">
    <path id="_260111920" class="fil0 str3" d="M440.979 341.86l98.8243 0 0 86.4713 -98.8243 0 0 -86.4713zm2.35296 1.76472l94.1184 0 0 82.3536 -94.1184 0 0 -82.3536z"/>
    <polygon id="_260111824" class="fil5 str5" points="443.92,343.625 536.862,343.625 536.862,347.713 536.862,351.802 536.862,355.89 536.862,359.978 536.862,364.066 536.862,368.155 536.862,372.243 536.862,376.331 536.862,380.419 536.862,384.508 536.862,388.596 536.862,392.684 536.862,396.773 536.862,400.861 536.862,404.949 536.862,409.037 536.862,413.126 536.862,417.214 536.862,421.302 536.862,425.39 443.92,425.39 443.92,421.302 443.92,417.214 443.92,413.126 443.92,409.037 443.92,404.949 443.92,400.861 443.92,396.773 443.92,392.684 443.92,388.596 443.92,384.508 443.92,380.419 443.92,376.331 443.92,372.243 443.92,368.155 443.92,364.066 443.92,359.978 443.92,355.89 443.92,351.802 443.92,347.713 "/>
   </g>
   <rect id="_262659288" class="fil5 str0" x="436.912" y="336.772" width="107.06" height="4.70592"/>
  </g>
  <path id="Valvula1" class="fil25 str3" d="M553.125 670.58l0 17.6472 26.4708 -17.6472 0 17.6472c-0.300002,-0.230296 -26.2627,-17.3698 -26.4708,-17.6472z"/>
  <path id="Valvula1On" class="fil26 str3" d="M553.125 670.58l0 17.6472 26.4708 -17.6472 0 17.6472c-0.300002,-0.230296 -26.2627,-17.3698 -26.4708,-17.6472z"/>
  <path id="Valvula2" class="fil25 str3" d="M517.266 670.58l0 17.6472 26.4708 -17.6472 0 17.6472c-0.300002,-0.230296 -26.2627,-17.3698 -26.4708,-17.6472z"/>
  <path id="Valvula2On" class="fil26 str3" d="M517.266 670.58l0 17.6472 26.4708 -17.6472 0 17.6472c-0.300002,-0.230296 -26.2627,-17.3698 -26.4708,-17.6472z"/>
 </g>
<script type="text/javascript" xlink:href="jquery-3.6.0.min.js" />
<script type="text/javascript" xlink:href="plano.js" />
</svg>
